<svg width="24" height="36" viewBox="0 0 24 36" fill="none" xmlns="http://www.w3.org/2000/svg">
<g id="location">
<g id="Clip path group">
<mask id="mask0_395_147" style="mask-type:luminance" maskUnits="userSpaceOnUse" x="0" y="0" width="24" height="36">
<g id="466bc9ed07">
<path id="Vector" d="M24 0H-1.90735e-05V35.8851H24V0Z" fill="white"/>
</g>
</mask>
<g mask="url(#mask0_395_147)">
<g id="Group">
<path id="Vector_2" d="M12.0004 -0.000854492C18.6159 -0.000854492 24 5.36439 24 11.9619C24 18.3076 13.0917 34.8495 12.6251 35.5489C12.4872 35.7569 12.2521 35.885 12.0004 35.885C11.7479 35.885 11.5143 35.7569 11.3741 35.5489C10.9098 34.8495 -1.90735e-05 18.3076 -1.90735e-05 11.9619C-1.90735e-05 5.36439 5.38406 -0.000854492 12.0004 -0.000854492Z" fill="#E95437"/>
</g>
</g>
</g>
<path id="Vector_3" d="M12.0004 17.1945C14.8951 17.1945 17.2503 14.8469 17.2503 11.9619C17.2503 9.07541 14.8951 6.72778 12.0004 6.72778C9.10484 6.72778 6.74968 9.07541 6.74968 11.9619C6.74968 14.8469 9.10484 17.1945 12.0004 17.1945Z" fill="white"/>
</g>
</svg>
