<svg width="73" height="59" viewBox="0 0 73 59" fill="none" xmlns="http://www.w3.org/2000/svg">
<g id="search">
<rect id="Rectangle 5" width="73" height="59" rx="5" fill="#F5735A"/>
<g id="search_2">
<mask id="mask0_87_391" style="mask-type:luminance" maskUnits="userSpaceOnUse" x="21" y="13" width="32" height="32">
<g id="ee097d426c">
<path id="Vector" d="M21 13H53V45H21V13Z" fill="white"/>
</g>
</mask>
<g mask="url(#mask0_87_391)">
<g id="Group">
<path id="Vector_2" fill-rule="evenodd" clip-rule="evenodd" d="M41.6761 36.3996L49.5554 44.2349C50.3346 45.01 51.6023 45.01 52.3824 44.2339C53.1616 43.4578 53.1616 42.1978 52.3814 41.4217L44.5081 33.5924C46.0916 31.4488 47.0282 28.8022 47.0282 25.9398C47.0282 18.7982 41.1997 13 34.0207 13C26.8408 13 21.0122 18.7982 21.0122 25.9398C21.0122 33.0813 26.8408 38.8795 34.0207 38.8795C36.881 38.8795 39.5273 37.9588 41.6761 36.3996ZM34.0207 16.9769C38.9934 16.9769 43.0305 20.993 43.0305 25.9398C43.0305 30.8865 38.9934 34.9026 34.0207 34.9026C29.048 34.9026 25.0109 30.8865 25.0109 25.9398C25.0109 20.993 29.048 16.9769 34.0207 16.9769Z" fill="white"/>
</g>
</g>
</g>
</g>
</svg>
